<?xml version="1.0" encoding="utf-8"?>
<!-- Generator: Adobe Illustrator 23.1.0, SVG Export Plug-In . SVG Version: 6.00 Build 0)  -->
<svg version="1.1" id="Layer_1" xmlns="http://www.w3.org/2000/svg" xmlns:xlink="http://www.w3.org/1999/xlink" x="0px" y="0px"
	 viewBox="0 0 844.21 585.17" style="enable-background:new 0 0 844.21 585.17;" xml:space="preserve">
<style type="text/css">
	.st0{display:none;}
	.st1{display:inline;fill:#FBFBFB;}
	.st2{display:inline;fill:#FEFEFE;}
	.st3{display:inline;fill:#39A384;}
	.st4{display:inline;fill:#36A282;}
	.st5{display:inline;fill:#3BA485;}
	.st6{display:inline;fill:#37A283;}
	.st7{display:inline;fill:#38A384;}
	.st8{display:inline;fill:#37A383;}
	.st9{display:inline;fill:#38A383;}
	.st10{display:inline;fill:#3CA586;}
	.st11{display:inline;fill:#44A88B;}
	.st12{display:inline;fill:#FAFBFB;}
	.st13{display:inline;fill:#FAFBFA;}
	.st14{display:inline;fill:#EBF4F1;}
	.st15{fill:#474948;}
	.st16{fill:#35A181;}
</style>
<g class="st0">
	<path class="st1" d="M894.16,730.06c-371.62,0-743.23-0.03-1114.85,0.2c-8.19,0.01-10.04-1.84-10.03-10.02
		c0.25-288.31,0.21-576.62,0.21-864.93c3.78-2.01,7.87-1.01,11.79-1.01c366.84-0.05,733.69-0.05,1100.53-0.03
		c15.04,0,13.4-1.59,13.4,13.35c0.03,283.55,0.02,567.1-0.03,850.66C895.17,722.2,896.17,726.28,894.16,730.06z"/>
	<path class="st2" d="M894.16,730.06c0-286.71,0-573.41,0-860.12c0-14.62-0.01-14.63-14.78-14.63c-369.97,0-739.94,0-1109.9,0
		c1.2-5.44,5.39-1.93,7.64-1.95c42.2-0.32,84.39-0.23,126.59-0.23c327.76,0,655.52,0.03,983.29-0.2c7.69-0.01,9.58,1.35,9.57,9.4
		c-0.27,286.34-0.22,572.68-0.36,859.01C896.21,724.16,898.67,728.1,894.16,730.06z"/>
	<path class="st3" d="M4,551.77c0.01-6.53-0.01-13.07,0.02-19.6c0.01-1.79-0.11-3.86,1.95-4.61c1.81-0.66,3.93-0.31,4.57,1.72
		c1.71,5.46,4.07,2.75,6.88,1c8.34-5.21,16.98-7.2,24.6,0.91c3.14,3.35,4.4,1.38,6.94-0.26c16.73-10.78,29.27-4.61,30.28,14.92
		c0.45,8.69,0.28,17.41,0.36,26.12c0.03,3.31,0.38,6.81-4.71,6.62c-5.09-0.19-4.35-3.88-4.38-7.05c-0.08-8.35,0.22-16.71-0.17-25.04
		c-0.31-6.5-2.12-12.72-10.41-12.54c-8.06,0.18-12.94,4.64-13.29,12.84c-0.35,8.33-0.15,16.69-0.1,25.04
		c0.02,3.52-0.18,6.7-4.88,6.72c-4.74,0.02-4.93-3.23-4.92-6.71c0.03-8.35,0.02-16.7-0.01-25.04c-0.02-6.77-1.6-12.9-9.85-12.76
		c-7.82,0.13-13.12,4.4-13.54,12.67c-0.4,7.97-0.05,15.97-0.15,23.95c-0.04,3.49,0.89,8-4.79,7.8c-5.67-0.2-4.29-4.84-4.38-8.2
		C3.88,564.12,4,557.94,4,551.77z"/>
	<path class="st4" d="M-64.89,543.55c0-8.72-0.06-17.43,0.03-26.14c0.03-3.12-0.79-7.35,4.01-7.47c14.78-0.38,30.48-3.01,42.01,9.52
		c10.01,10.88,10.92,24.16,6.54,37.78c-4.78,14.86-17.97,22.56-37.23,22.28c-15.36-0.23-15.36-0.23-15.36-15.26
		C-64.89,557.35-64.89,550.45-64.89,543.55z"/>
	<path class="st5" d="M441.28,532.02c11.51-6.86,22.16-9.55,31.14-0.04c8.9,9.42,8.42,21.24,4.29,32.69
		c-3.64,10.08-12.89,14.76-26.65,14.6c-17.03-0.2-18.04-1.18-18.04-17.58c0-14.5-0.06-29,0.05-43.49c0.03-3.37-1.12-7.99,4.57-8.01
		c5.71-0.02,4.45,4.6,4.6,7.98C441.42,522.11,441.28,526.08,441.28,532.02z"/>
	<path class="st6" d="M330.72,579.53c-5.13,0.24-10.13-0.43-15.05-1.91c-2.61-0.78-5.12-1.48-4-5c1.01-3.16,2.96-4.95,6.54-3.55
		c5.56,2.17,11.35,2.22,17.18,1.87c5.94-0.36,10.9-2.72,12.14-8.91c1.22-6.11-3.19-9.14-8.13-11.3c-5.64-2.46-11.48-4.54-16.93-7.36
		c-8.06-4.18-11.22-11.05-9.27-19.99c1.9-8.7,8.23-12.68,16.35-13.46c6.45-0.61,13.06-0.26,19.53,0.42c2.57,0.27,7.07,0.1,6,5.48
		c-0.99,4.97-3.83,3.77-7.28,3.1c-5.68-1.11-11.49-1.91-17.3-0.63c-4.22,0.93-7.5,3.17-8.18,7.63c-0.62,4.03,1.64,7.1,5.08,8.85
		c4.83,2.46,9.88,4.49,14.83,6.71c12.33,5.51,16.62,11.91,14.87,22.21c-1.5,8.88-10.31,15.22-22.02,15.83
		C333.63,579.6,332.17,579.54,330.72,579.53z"/>
	<path class="st7" d="M245.98,579.55c-15.26-0.3-24.26-10.43-24.13-27.17c0.13-16.28,9.88-26.63,25-26.51
		c15.42,0.11,25.17,11.09,24.82,27.94C271.33,569.95,261.45,579.85,245.98,579.55z"/>
	<path class="st7" d="M392.44,579.55c-15.23-0.21-24.52-10.49-24.39-26.97c0.13-16.39,9.7-26.68,24.85-26.71
		c15.42-0.03,25.38,11.04,24.95,27.71C417.42,570.11,407.97,579.77,392.44,579.55z"/>
	<path class="st6" d="M540.39,553.25c-0.17,16.66-9.6,26.5-25.2,26.3c-15.39-0.2-25.08-10.86-24.68-27.14
		c0.41-16.32,10.51-26.81,25.53-26.52C531.3,526.19,540.56,536.59,540.39,553.25z"/>
	<path class="st8" d="M642.39,579.61c-12.09,0.07-20.69-3.3-24.32-13.58c-4.04-11.43-4.25-23.11,4.29-32.81
		c7.67-8.71,18-8.69,28.21-5.59c7.98,2.42,13.48,14.68,11.22,22.48c-1.16,4.03-3.99,3.55-6.81,3.58c-7.63,0.06-15.27,0.3-22.88-0.05
		c-7.7-0.35-7.6,3.8-5.48,8.89c4.35,10.44,13.35,9.19,22.23,8.74c3.2-0.16,7.95-6.28,9.6,0.87c1.29,5.6-4.98,5.01-8.2,6.29
		C647.33,579.6,643.87,579.42,642.39,579.61z"/>
	<path class="st9" d="M89.07,528.22c7.95-2.74,11.02,0.24,13.22,6.48c3.97,11.23,8.75,22.17,13.66,34.38
		c2.92-9.1,4.72-17.62,8.4-25.23c2.96-6.12,0.12-18.26,14.55-16.18c-7.3,19.33-14.13,37.98-21.42,56.44
		c-2.54,6.42-6.04,12.7-13.9,13.97c-2.69,0.44-6.17,0.79-6.64-3.49c-0.38-3.45,1.98-3.64,4.67-4.4c8.99-2.54,10.87-8.81,7.4-16.86
		C102.55,558.37,95.85,543.53,89.07,528.22z"/>
	<path class="st10" d="M164.68,579.64c-8.39,0.45-13.23-3.15-13.61-11.83c-0.32-7.25-0.44-14.5-0.83-21.74
		c-0.25-4.65,2.11-10.73-6.07-11.45c-1.89-0.17-3.11-3.79-2.35-4.1c6.67-2.72,7.82-10.03,12.5-14.18c1.57-1.39,5.09-0.5,4.86,2.2
		c-0.74,8.68,4.27,9.26,10.77,8.69c2.43-0.21,5.35-0.38,5.29,3.57c-0.05,3.48-2.45,4.54-5.1,4.15
		c-10.19-1.49-11.42,4.22-10.64,12.24c0.49,5.05,0.39,10.16,0.4,15.24c0.02,6.03,2.03,9.89,8.98,9.1c3.03-0.34,7.3-2.06,7.46,3.1
		c0.14,4.49-4.75,3.26-7.36,4.58C167.78,579.81,166.13,579.52,164.68,579.64z"/>
	<path class="st7" d="M692.32,563.33c9.97-10.69,6.25-30.54,22-36.86c1.05,0.68,2.1,1.35,3.16,2.03
		c-7,15.41-13.99,30.83-21.04,46.22c-0.87,1.89-1.44,4.48-4.09,4.51c-3.31,0.03-3.64-3.18-4.64-5.3
		c-5.88-12.4-11.79-24.8-17.22-37.4c-1.16-2.69-6.4-6.34-1.43-8.9c4.92-2.53,8.4,0.85,10.46,6.09
		C683.44,543.68,687.99,553.4,692.32,563.33z"/>
	<path class="st10" d="M555.95,542.28c0-6.5-0.49-13.06,0.17-19.49c0.45-4.31-3.53-12.13,4-12.2c8.86-0.08,4.14,8.36,4.41,12.71
		c0.75,12.24,0.23,24.55,0.28,36.84c0.02,6,0.01,12.14,8.8,11.49c2.76-0.2,4.01,1.24,3.92,3.83c-0.1,2.71-2.17,3.31-4.37,3.88
		c-9.8,2.56-16.39-2.05-17.18-12.14c-0.06-0.72-0.02-1.44-0.02-2.17C555.95,557.46,555.95,549.87,555.95,542.28z"/>
	<path class="st11" d="M187.33,551.29c0-3.99-0.01-7.97,0-11.96c0.01-9.6,0-9.58,8.48-7.07c2.2,0.65,2.92-1.48,4.09-2.54
		c2.89-2.62,6.38-3.53,10.02-3.47c2.99,0.05,5.75,0.85,5.24,5.1c-0.39,3.23-1.72,4.28-4.95,3.88c-11.15-1.37-13.72,5.19-13.44,14.58
		c0.22,7.24,0.06,14.49,0.03,21.74c-0.01,3.29,0.27,6.93-4.53,7.08c-4.7,0.14-4.94-3.22-4.92-6.69
		C187.34,565.06,187.33,558.18,187.33,551.29z"/>
	<path class="st4" d="M599.33,553.29c-0.01,6.86-0.05,13.73,0.01,20.59c0.03,3.06-1.15,4.7-4.42,4.69
		c-3.15-0.01-4.63-1.44-4.63-4.56c0.01-14.09,0.02-28.17-0.01-42.26c-0.01-3.06,1.24-4.46,4.49-4.57c4.27-0.15,4.59,2.36,4.57,5.53
		C599.3,539.57,599.34,546.43,599.33,553.29z"/>
	<path class="st11" d="M601.18,515.03c-0.8,3.87-3.02,5.75-6.78,5.6c-3.25-0.13-5.59-1.74-5.77-5.06c-0.2-3.87,2.2-5.79,5.96-5.94
		C598.44,509.48,600.36,511.71,601.18,515.03z"/>
	<path class="st1" d="M-55.8,544.64c-0.01-5.44,0.54-10.95-0.14-16.31c-1.03-8.24,2.1-10.68,10.17-10.33
		c17.77,0.78,26.87,11.52,24.94,30.56c-1.58,15.53-14.27,24.71-30.2,22.34c-3.88-0.58-4.83-2.22-4.79-5.59
		C-55.73,558.42-55.79,551.53-55.8,544.64z"/>
	<path class="st12" d="M441.31,557.67c0-3.8-0.18-6.33,0.03-8.84c0.77-9.29,6.92-15.49,15.1-15.02c9.18,0.53,12.09,6.91,12.54,14.75
		c0.35,6.09,0.47,12.43-3.78,17.55c-5.45,6.56-13.11,6.16-20,4.33C437.46,568.39,443.49,560.91,441.31,557.67z"/>
	<path class="st12" d="M261.65,554.06c-0.44,12.32-5.4,17.91-15.58,17.57c-9.69-0.33-14.89-7.66-14.27-20.11
		c0.61-12.21,5.75-18.05,15.62-17.74C256.83,534.06,262.1,541.57,261.65,554.06z"/>
	<path class="st12" d="M377.99,552.32c0.37-12.66,5.88-19.06,15.99-18.55c9.03,0.45,14.26,7.75,13.99,19.5
		c-0.3,12.97-5.39,18.84-15.92,18.36C382.85,571.21,377.65,564.07,377.99,552.32z"/>
	<path class="st13" d="M515.41,533.76c9.11-0.27,15.36,6.98,15.71,18.23c0.38,11.95-5.36,19.38-15.16,19.64
		c-9.34,0.25-14.81-5.88-15.2-17.02C500.28,540.89,505.07,534.07,515.41,533.76z"/>
	<path class="st14" d="M640.36,533.64c4.65-0.16,8.8,1.12,11.02,5.41c2.46,4.74,3.49,9.33-4.53,9.21c-3.25-0.05-6.59,0.46-9.73-0.12
		c-3.78-0.7-10.16,3.01-10.87-2.95c-0.78-6.44,4.61-10.06,10.87-11.35C638.17,533.63,639.28,533.7,640.36,533.64z"/>
</g>
<g>
	<g>
		<path class="st15" d="M114.1,15.07c29.84,0,59.73-1.04,89.51,0.23c54.08,2.3,104.85,15.29,147.95,50.43
			c43.63,35.58,64.41,82.71,67.8,137.57c3.86,62.48-13.26,118.1-60.78,161.45c-35.04,31.97-77.52,48.65-124.1,53.41
			c-75.46,7.71-151.27,1.96-226.91,3.59c-5.75,0.12-7.52-2.14-7.51-7.7c0.13-61.8,0.12-123.6,0.03-185.4
			c-0.01-4.99,1.45-7.02,6.84-6.99c33.84,0.2,67.69,0.26,101.53-0.03c6.82-0.06,6.56,3.69,6.55,8.32
			c-0.06,29.08,0.31,58.17-0.22,87.24c-0.17,9.17,1.74,12.81,11.88,12.4c23.62-0.95,47.33,0.22,70.93-0.95
			c43.5-2.15,79.22-19.45,96.21-61.35c17.63-43.48,14.48-86.82-16.2-124.27c-17.62-21.52-42.42-33-70.56-34.56
			c-63.63-3.53-127.33-0.76-191-1.56c-17.84-0.22-15.82,2.18-15.9-15.48C0.07,68.88,0.41,46.34,0.01,23.8
			c-0.13-7.19,2.12-9.23,9.29-9.16c34.93,0.35,69.87,0.16,104.81,0.16C114.1,14.89,114.1,14.98,114.1,15.07z"/>
		<path class="st16" d="M663.54,429c-51.85,0.04-101.99-8.52-149.1-31.03c-22.95-10.97-22.77-11.33-12.27-34.81
			c8.3-18.56,16.73-37.07,24.73-55.76c2.5-5.85,4.81-6.43,10.31-3.13c41.89,25.1,87.43,36.74,136.21,35.7
			c12.39-0.26,24.63-1.92,36.3-6.4c14.25-5.47,20.31-13.49,20.71-26.19c0.45-13.96-8.14-21.26-19.37-26.1
			c-28.55-12.3-59.26-16.98-89.15-24.57c-27.83-7.06-55.35-14.64-79.59-31.3c-58.49-40.18-49.81-121.21-18.73-159
			c23.71-28.83,54.45-45.35,90.35-52.77c70.59-14.6,138.68-6.61,204.27,23.42c7.68,3.51,8.9,7.2,5.47,14.9
			c-9.74,21.87-19.15,43.92-27.6,66.31c-3.24,8.59-6.57,8.1-13.39,4.63c-39.39-20.02-80.93-29.95-125.36-25.38
			c-11.79,1.21-22.59,4.78-32.15,12.15c-14.16,10.91-17.94,37.12,5.38,46.94c25.69,10.82,53.08,14.82,79.76,21.73
			c21.43,5.55,43.14,10.35,63.43,19.52c38.81,17.53,66.9,43.86,70.09,89.16c3.36,47.69-15.58,84.74-55.25,111.22
			c-30.88,20.61-65.82,28.08-102.13,30.68C678.85,429.47,671.18,429,663.54,429z"/>
	</g>
	<g>
		<g>
			<path class="st16" d="M31.87,485.79h10.28v70.97H31.87V485.79z M38.82,547.29h16.57c5.41,0,9.6-1.36,12.57-4.08
				c2.97-2.72,4.46-6.55,4.46-11.49v-20.89c0-4.95-1.49-8.78-4.46-11.5c-2.97-2.72-7.16-4.08-12.57-4.08H38.82v-9.47h16.27
				c5.88,0,10.9,0.99,15.06,2.98c4.16,1.99,7.34,4.88,9.52,8.69c2.18,3.81,3.27,8.4,3.27,13.76v20.11c0,5.37-1.09,9.96-3.27,13.76
				c-2.18,3.81-5.36,6.7-9.54,8.69c-4.18,1.99-9.21,2.98-15.09,2.98H38.82V547.29z"/>
			<path class="st16" d="M98.56,506.09h10.28v50.66H98.56V506.09z M129.79,526.05c0-3.58-0.91-6.35-2.72-8.3
				c-1.81-1.95-4.38-2.93-7.71-2.93c-3.36,0-5.95,0.86-7.78,2.59c-1.83,1.73-2.75,4.15-2.75,7.27l-1.06-9.76
				c1.61-3.06,3.72-5.42,6.32-7.08c2.6-1.66,5.48-2.49,8.64-2.49c3.66,0,6.78,0.81,9.37,2.42c2.59,1.61,4.56,3.96,5.92,7.05
				c1.36,3.09,2.04,6.82,2.04,11.18v30.75h-10.27V526.05z M161.01,526.05c0-3.58-0.96-6.35-2.87-8.3c-1.91-1.95-4.6-2.93-8.06-2.93
				c-3.19,0-5.66,0.94-7.4,2.83c-1.75,1.89-2.62,4.56-2.62,8L138,515.9c1.65-3.35,3.82-5.95,6.52-7.79c2.7-1.84,5.68-2.76,8.94-2.76
				c3.76,0,6.98,0.81,9.65,2.42c2.67,1.61,4.7,3.96,6.09,7.05c1.39,3.09,2.09,6.82,2.09,11.18v30.75h-10.28V526.05z"/>
			<path class="st16" d="M181.36,506.09h10.48l16.07,44.03l-5.69,10.79L181.36,506.09z M227.65,506.09l-22.26,62.52
				c-0.81,2.31-1.86,4.14-3.17,5.49s-2.92,2.32-4.84,2.9s-4.26,0.88-7.05,0.88h-2.07v-9.57h2.07c1.91,0,3.43-0.37,4.56-1.12
				c1.12-0.75,2.11-2.03,2.95-3.86l19.34-57.25H227.65z"/>
			<path class="st16" d="M232.69,506.09h23.57v8.98h-23.57V506.09z M241.03,553.61c-1.96-2.26-2.95-5.6-2.95-10.03v-52.23h10.28
				v52.32c0,1.24,0.25,2.19,0.76,2.86c0.5,0.67,1.24,1,2.22,1h4.94V557h-5.94C246.09,557,242.99,555.87,241.03,553.61z"/>
			<path class="st16" d="M270.37,506.09h10.28v50.66h-10.28V506.09z M295.7,515.66c-1.38-0.55-2.97-0.83-4.78-0.83
				c-3.26,0-5.78,0.87-7.58,2.61c-1.8,1.74-2.69,4.16-2.69,7.25l-1.06-9.76c1.61-3.03,3.69-5.38,6.25-7.05
				c2.55-1.68,5.37-2.51,8.46-2.51c2.38,0,4.54,0.33,6.47,1c1.93,0.67,3.62,1.65,5.06,2.95l-6.7,8.79
				C298.22,517.02,297.08,516.21,295.7,515.66z"/>
			<path class="st16" d="M322.8,554.9c-3.22-1.72-5.68-4.24-7.38-7.54c-1.7-3.3-2.54-7.28-2.54-11.93v-8.25
				c0-4.59,0.85-8.52,2.54-11.79c1.69-3.27,4.16-5.76,7.38-7.47s7.1-2.56,11.64-2.56s8.41,0.85,11.64,2.56s5.68,4.2,7.38,7.47
				c1.7,3.27,2.54,7.2,2.54,11.79v8.39c0,4.62-0.85,8.57-2.54,11.84c-1.7,3.27-4.16,5.77-7.38,7.49s-7.1,2.59-11.64,2.59
				S326.02,556.63,322.8,554.9z M342.77,544.75c1.96-2.18,2.95-5.24,2.95-9.18v-8.39c0-3.94-0.98-6.98-2.95-9.13
				s-4.74-3.22-8.34-3.22c-3.59,0-6.37,1.07-8.34,3.22s-2.95,5.19-2.95,9.13v8.39c0,3.94,0.98,7,2.95,9.18s4.74,3.27,8.34,3.27
				C338.03,548.02,340.81,546.93,342.77,544.75z"/>
			<path class="st16" d="M416.03,557.49c0,0-1.58-0.33-4.73-0.98c-3.16-0.65-6.1-1.63-8.84-2.93c-2.74-1.3-5.3-2.93-7.68-4.88
				l6.4-7.61c2.79,2.34,5.86,4.1,9.22,5.27c3.36,1.17,7,1.76,10.93,1.76c5.3,0,9.42-0.95,12.34-2.86c2.92-1.9,4.38-4.6,4.38-8.08
				v-0.05c0-2.47-0.66-4.43-1.99-5.88c-1.33-1.45-3.04-2.52-5.14-3.22c-2.1-0.7-4.81-1.34-8.13-1.93c-0.1-0.03-0.21-0.05-0.33-0.05
				c-0.12,0-0.23-0.02-0.33-0.05l-0.76-0.15c-4.9-0.81-8.89-1.73-11.96-2.76c-3.07-1.02-5.7-2.9-7.88-5.61
				c-2.18-2.72-3.27-6.58-3.27-11.59v-0.05c0-4.39,1.02-8.14,3.05-11.25c2.03-3.11,4.99-5.47,8.89-7.1
				c3.9-1.63,8.58-2.44,14.05-2.44c2.62,0,5.2,0.28,7.73,0.83c2.53,0.55,5.04,1.38,7.5,2.46c2.47,1.09,4.89,2.46,7.28,4.12
				l-5.84,7.91c-2.79-1.98-5.57-3.47-8.34-4.47c-2.77-0.99-5.55-1.49-8.34-1.49c-5,0-8.89,0.97-11.66,2.9
				c-2.77,1.94-4.16,4.68-4.16,8.22v0.05c0,2.44,0.71,4.36,2.14,5.76c1.43,1.4,3.21,2.43,5.34,3.1c2.13,0.67,5.1,1.36,8.89,2.08
				c0.13,0.03,0.26,0.06,0.38,0.07c0.12,0.02,0.24,0.04,0.38,0.07c0.17,0.03,0.35,0.07,0.55,0.1c0.2,0.03,0.39,0.07,0.55,0.1
				c4.43,0.88,8.13,1.92,11.11,3.12c2.97,1.2,5.46,3.15,7.46,5.83c2,2.68,3,6.35,3,11.01v0.1c0,4.33-1.06,8.03-3.17,11.1
				c-2.12,3.08-5.18,5.42-9.19,7.03c-4.01,1.61-8.86,2.42-14.53,2.42C417.8,557.49,416.03,557.49,416.03,557.49z"/>
			<path class="st16" d="M470.23,554.9c-3.22-1.72-5.68-4.24-7.38-7.54c-1.7-3.3-2.54-7.28-2.54-11.93v-8.25
				c0-4.59,0.85-8.52,2.54-11.79c1.69-3.27,4.16-5.76,7.38-7.47s7.1-2.56,11.63-2.56s8.41,0.85,11.64,2.56s5.68,4.2,7.38,7.47
				c1.7,3.27,2.54,7.2,2.54,11.79v8.39c0,4.62-0.85,8.57-2.54,11.84c-1.7,3.27-4.16,5.77-7.38,7.49s-7.1,2.59-11.64,2.59
				S473.45,556.63,470.23,554.9z M490.2,544.75c1.96-2.18,2.95-5.24,2.95-9.18v-8.39c0-3.94-0.98-6.98-2.95-9.13
				c-1.96-2.15-4.74-3.22-8.34-3.22c-3.59,0-6.37,1.07-8.34,3.22c-1.96,2.15-2.95,5.19-2.95,9.13v8.39c0,3.94,0.98,7,2.95,9.18
				c1.96,2.18,4.74,3.27,8.34,3.27C485.46,548.02,488.24,546.93,490.2,544.75z"/>
			<path class="st16" d="M518.03,485.79h10.28v70.97h-10.28V485.79z M532.94,555.22c-2.42-1.51-4.2-3.65-5.34-6.42l0.71-10.59
				c0,2.18,0.4,4.04,1.21,5.56c0.81,1.53,1.97,2.7,3.5,3.51s3.38,1.22,5.57,1.22c3.39,0,6.02-1,7.88-3c1.86-2,2.79-4.82,2.79-8.47
				v-10.98c0-3.71-0.93-6.59-2.79-8.64c-1.86-2.05-4.49-3.07-7.88-3.07c-2.18,0-4.04,0.39-5.57,1.17s-2.69,1.93-3.5,3.44
				c-0.81,1.51-1.21,3.33-1.21,5.44l-1.06-9.76c1.58-2.96,3.64-5.25,6.2-6.86c2.55-1.61,5.39-2.42,8.51-2.42
				c3.69,0,6.86,0.81,9.49,2.42c2.63,1.61,4.64,3.96,6.02,7.05c1.38,3.09,2.06,6.82,2.06,11.18v11.03c0,4.29-0.71,7.97-2.12,11.03
				c-1.41,3.06-3.47,5.39-6.2,7c-2.72,1.61-5.98,2.42-9.77,2.42C538.19,557.49,535.36,556.73,532.94,555.22z"/>
			<path class="st16" d="M582.55,554.9c-3.22-1.72-5.68-4.24-7.38-7.54c-1.7-3.3-2.54-7.28-2.54-11.93v-8.25
				c0-4.59,0.85-8.52,2.54-11.79c1.7-3.27,4.16-5.76,7.38-7.47s7.1-2.56,11.64-2.56c4.53,0,8.41,0.85,11.63,2.56s5.68,4.2,7.38,7.47
				c1.7,3.27,2.54,7.2,2.54,11.79v8.39c0,4.62-0.85,8.57-2.54,11.84c-1.7,3.27-4.16,5.77-7.38,7.49s-7.1,2.59-11.63,2.59
				C589.66,557.49,585.78,556.63,582.55,554.9z M602.53,544.75c1.96-2.18,2.95-5.24,2.95-9.18v-8.39c0-3.94-0.98-6.98-2.95-9.13
				c-1.96-2.15-4.74-3.22-8.34-3.22c-3.59,0-6.37,1.07-8.34,3.22c-1.96,2.15-2.95,5.19-2.95,9.13v8.39c0,3.94,0.98,7,2.95,9.18
				c1.96,2.18,4.74,3.27,8.34,3.27C597.78,548.02,600.56,546.93,602.53,544.75z"/>
			<path class="st16" d="M640.63,543.67c0,1.24,0.28,2.19,0.83,2.86c0.55,0.67,1.33,1,2.34,1h4.83V557h-6.04
				c-3.9,0-6.91-1.17-9.04-3.51c-2.13-2.34-3.2-5.64-3.2-9.91v-57.79h10.28V543.67z"/>
			<path class="st16" d="M660.22,485.79h10.28v9.96h-10.28V485.79z M660.22,506.09h10.28v50.66h-10.28V506.09z"/>
			<path class="st16" d="M700.27,557.49c0,0-1.71-0.88-5.14-2.64c-3.42-1.76-6.04-4.34-7.83-7.74c-1.8-3.4-2.7-7.51-2.7-12.32v-5.71
				c0-5.01,0.86-9.29,2.59-12.84s4.24-6.25,7.53-8.1s7.25-2.78,11.89-2.78c4.36,0,8.09,1.06,11.18,3.17
				c3.09,2.12,5.45,5.17,7.08,9.18c1.63,4,2.44,8.8,2.44,14.4v3.32h-35.26v-8h25.49c-0.3-4.13-1.4-7.35-3.3-9.64
				c-1.9-2.29-4.44-3.44-7.63-3.44c-3.9,0-6.91,1.24-9.04,3.71c-2.13,2.47-3.2,5.97-3.2,10.49v6.44c0,4.2,1.14,7.42,3.43,9.67
				c2.28,2.25,5.52,3.37,9.72,3.37c2.08,0,4.15-0.41,6.2-1.22c2.05-0.81,3.88-1.95,5.49-3.42l6.75,6.54
				c-2.59,2.41-5.49,4.27-8.71,5.59c-3.22,1.32-6.46,1.98-9.72,1.98C702.68,557.49,700.27,557.49,700.27,557.49z"/>
			<path class="st16" d="M772.19,506.09h10.73l-19.64,50.66h-7.76l-19.64-50.66h10.73l12.79,36.17L772.19,506.09z"/>
		</g>
	</g>
</g>
</svg>
